solid OpenSCAD_Model
  facet normal 1 0 0
    outer loop
      vertex 12 15 30
      vertex 12 10 25
      vertex 12 15 0
    endloop
  endfacet
  facet normal 1 0 0
    outer loop
      vertex 12 15 30
      vertex 12 5 25
      vertex 12 10 25
    endloop
  endfacet
  facet normal 1 -0 0
    outer loop
      vertex 12 0 30
      vertex 12 5 25
      vertex 12 15 30
    endloop
  endfacet
  facet normal 1 0 0
    outer loop
      vertex 12 0 0
      vertex 12 5 25
      vertex 12 0 30
    endloop
  endfacet
  facet normal 1 0 0
    outer loop
      vertex 12 5 25
      vertex 12 0 0
      vertex 12 5 0
    endloop
  endfacet
  facet normal 1 0 0
    outer loop
      vertex 12 15 0
      vertex 12 10 25
      vertex 12 10 0
    endloop
  endfacet
  facet normal -0 0 1
    outer loop
      vertex 0 15 30
      vertex 12 0 30
      vertex 12 15 30
    endloop
  endfacet
  facet normal 0 0 1
    outer loop
      vertex 12 0 30
      vertex 0 15 30
      vertex 0 0 30
    endloop
  endfacet
  facet normal 0 0 -1
    outer loop
      vertex 0 10 0
      vertex 12 15 0
      vertex 12 10 0
    endloop
  endfacet
  facet normal -0 0 -1
    outer loop
      vertex 12 15 0
      vertex 0 10 0
      vertex 0 15 0
    endloop
  endfacet
  facet normal 0 0 -1
    outer loop
      vertex 0 0 0
      vertex 12 5 0
      vertex 12 0 0
    endloop
  endfacet
  facet normal -0 0 -1
    outer loop
      vertex 12 5 0
      vertex 0 0 0
      vertex 0 5 0
    endloop
  endfacet
  facet normal -1 0 0
    outer loop
      vertex 0 5 0
      vertex 0 0 0
      vertex 0 5 25
    endloop
  endfacet
  facet normal -1 0 0
    outer loop
      vertex 0 10 25
      vertex 0 15 0
      vertex 0 10 0
    endloop
  endfacet
  facet normal -1 0 0
    outer loop
      vertex 0 15 0
      vertex 0 10 25
      vertex 0 15 30
    endloop
  endfacet
  facet normal -1 0 0
    outer loop
      vertex 0 5 25
      vertex 0 15 30
      vertex 0 10 25
    endloop
  endfacet
  facet normal -1 0 0
    outer loop
      vertex 0 5 25
      vertex 0 0 30
      vertex 0 15 30
    endloop
  endfacet
  facet normal -1 0 0
    outer loop
      vertex 0 0 30
      vertex 0 5 25
      vertex 0 0 0
    endloop
  endfacet
  facet normal 0 1 -0
    outer loop
      vertex 12 15 0
      vertex 0 15 30
      vertex 12 15 30
    endloop
  endfacet
  facet normal 0 1 0
    outer loop
      vertex 0 15 30
      vertex 12 15 0
      vertex 0 15 0
    endloop
  endfacet
  facet normal 0 -1 0
    outer loop
      vertex 0 0 0
      vertex 12 0 30
      vertex 0 0 30
    endloop
  endfacet
  facet normal 0 -1 -0
    outer loop
      vertex 12 0 30
      vertex 0 0 0
      vertex 12 0 0
    endloop
  endfacet
  facet normal 0 0 -1
    outer loop
      vertex 0 5 25
      vertex 12 10 25
      vertex 12 5 25
    endloop
  endfacet
  facet normal -0 0 -1
    outer loop
      vertex 12 10 25
      vertex 0 5 25
      vertex 0 10 25
    endloop
  endfacet
  facet normal 0 -1 0
    outer loop
      vertex 0 10 0
      vertex 12 10 25
      vertex 0 10 25
    endloop
  endfacet
  facet normal 0 -1 -0
    outer loop
      vertex 12 10 25
      vertex 0 10 0
      vertex 12 10 0
    endloop
  endfacet
  facet normal 0 1 -0
    outer loop
      vertex 12 5 0
      vertex 0 5 25
      vertex 12 5 25
    endloop
  endfacet
  facet normal 0 1 0
    outer loop
      vertex 0 5 25
      vertex 12 5 0
      vertex 0 5 0
    endloop
  endfacet
endsolid OpenSCAD_Model
